<svg aria-hidden="true" style="position: absolute; width: 0; height: 0; overflow: hidden;" version="1.1" xmlns="http://www.w3.org/2000/svg" xmlns:xlink="http://www.w3.org/1999/xlink">
<defs>
<symbol id="icon-injection" viewBox="0 0 32 32">
<path d="M24.16 9.207c0.378 0.377 0.378 0.989 0 1.367s-0.685 0.684-0.685 0.684l0.685 0.684c0.755 0.755 0.755 1.979 0 2.735l-10.255 10.253c-0.756 0.756-1.98 0.756-2.735 0l-0.684-0.684-2.734 2.736 1.367 1.367c0.378 0.377 0.378 0.988 0 1.367-0.378 0.377-0.99 0.377-1.367 0l-5.47-5.471c-0.377-0.377-0.377-0.988 0-1.367 0.378-0.377 0.99-0.377 1.367 0l1.367 1.367 2.735-2.734-0.684-0.684c-0.756-0.754-0.756-1.979 0-2.734l10.256-10.254c0.756-0.756 1.979-0.756 2.734 0l0.684 0.684c0 0 0.307-0.307 0.684-0.684 0.378-0.378 0.99-0.378 1.367 0l0.342 0.342 5.47-5.47v1.367l-4.786 4.786 0.342 0.343zM19.374 8.523c-0.377-0.378-0.989-0.378-1.367 0l-2.051 2.051 1.367 1.367-0.684 0.684-1.367-1.367-2.051 2.051 1.367 1.368-0.684 0.684-1.368-1.368-0.684 0.684 2.735 2.734-0.684 0.684-2.735-2.734-2.049 2.049 2.734 2.734-0.684 0.684-2.734-2.734-0.684 0.684c-0.378 0.377-0.378 0.99 0 1.367l4.102 4.102c0.378 0.379 0.99 0.379 1.368 0l10.254-10.254c0.379-0.377 0.379-0.989 0-1.367l-4.101-4.103zM16.64 9.89l0.684-0.684 2.734 2.734-0.684 0.684-2.734-2.734zM16.64 15.359l-2.734-2.735 0.684-0.684 2.734 2.735-0.684 0.684zM9.803 16.727l0.684-0.684 1.367 1.367-0.684 0.684-1.367-1.367zM29.942 9.386c0 0.725-0.588 1.312-1.312 1.312-0.726 0-1.313-0.588-1.313-1.312 0-0.726 1.313-2.708 1.313-2.708s1.312 1.983 1.312 2.708z"></path>
</symbol>
<symbol id="icon-arrow-up" viewBox="0 0 26 28">
<path d="M25.172 15.172c0 0.531-0.219 1.031-0.578 1.406l-1.172 1.172c-0.375 0.375-0.891 0.594-1.422 0.594s-1.047-0.219-1.406-0.594l-4.594-4.578v11c0 1.125-0.938 1.828-2 1.828h-2c-1.062 0-2-0.703-2-1.828v-11l-4.594 4.578c-0.359 0.375-0.875 0.594-1.406 0.594s-1.047-0.219-1.406-0.594l-1.172-1.172c-0.375-0.375-0.594-0.875-0.594-1.406s0.219-1.047 0.594-1.422l10.172-10.172c0.359-0.375 0.875-0.578 1.406-0.578s1.047 0.203 1.422 0.578l10.172 10.172c0.359 0.375 0.578 0.891 0.578 1.422z"></path>
</symbol>
<symbol id="icon-arrow-down" viewBox="0 0 26 28">
<path d="M25.172 13c0 0.531-0.219 1.047-0.578 1.406l-10.172 10.187c-0.375 0.359-0.891 0.578-1.422 0.578s-1.047-0.219-1.406-0.578l-10.172-10.187c-0.375-0.359-0.594-0.875-0.594-1.406s0.219-1.047 0.594-1.422l1.156-1.172c0.375-0.359 0.891-0.578 1.422-0.578s1.047 0.219 1.406 0.578l4.594 4.594v-11c0-1.094 0.906-2 2-2h2c1.094 0 2 0.906 2 2v11l4.594-4.594c0.359-0.359 0.875-0.578 1.406-0.578s1.047 0.219 1.422 0.578l1.172 1.172c0.359 0.375 0.578 0.891 0.578 1.422z"></path>
</symbol>
<symbol id="icon-local_hospital" viewBox="0 0 24 24">
<path d="M18 14.016v-4.031h-3.984v-3.984h-4.031v3.984h-3.984v4.031h3.984v3.984h4.031v-3.984h3.984zM18.984 3q0.797 0 1.406 0.609t0.609 1.406v13.969q0 0.797-0.609 1.406t-1.406 0.609h-13.969q-0.797 0-1.406-0.609t-0.609-1.406v-13.969q0-0.797 0.609-1.406t1.406-0.609h13.969z"></path>
</symbol>
<symbol id="icon-dangerous" viewBox="0 0 24 24">
<path d="M17.016 15.75l-3.75-3.75 3.75-3.75-1.266-1.266-3.75 3.75-3.75-3.75-1.266 1.266 3.75 3.75-3.75 3.75 1.266 1.266 3.75-3.75 3.75 3.75zM15.75 3l5.25 5.25v7.5l-5.25 5.25h-7.5l-5.25-5.25v-7.5l5.25-5.25h7.5z"></path>
</symbol>
<symbol id="icon-coronavirus" viewBox="0 0 24 24">
<path d="M21.234 10.5q-0.281 0-0.516 0.211t-0.234 0.539h-1.547q-0.188-2.063-1.5-3.656l1.078-1.078h0.047q0.188 0.234 0.492 0.234t0.539-0.234 0.234-0.539-0.234-0.539l-1.031-1.031q-0.234-0.234-0.539-0.234t-0.539 0.234-0.234 0.539 0.234 0.492l-1.125 1.125q-0.75-0.656-1.664-1.031t-1.945-0.516v-1.5q0.328 0 0.539-0.234t0.211-0.516q0-0.328-0.211-0.539t-0.539-0.211h-1.5q-0.328 0-0.539 0.211t-0.211 0.539q0 0.281 0.211 0.516t0.539 0.234v1.547q-1.031 0.094-1.969 0.492t-1.688 1.008l-1.078-1.078v-0.047q0.234-0.188 0.234-0.492t-0.234-0.539-0.539-0.234-0.539 0.234l-1.031 1.031q-0.234 0.234-0.234 0.539t0.234 0.539 0.539 0.234 0.492-0.234l1.125 1.125q-0.656 0.75-1.031 1.664t-0.469 1.945h-1.547q0-0.328-0.234-0.539t-0.516-0.211q-0.328 0-0.539 0.211t-0.211 0.539v1.5q0 0.328 0.211 0.539t0.539 0.211q0.281 0 0.516-0.211t0.234-0.539h1.547q0.094 1.031 0.492 1.945t1.008 1.664l-1.125 1.125q-0.188-0.234-0.492-0.234t-0.539 0.234-0.234 0.539 0.234 0.539l1.031 1.031q0.234 0.234 0.539 0.234t0.539-0.234 0.234-0.539-0.234-0.492v-0.047l1.078-1.078q0.75 0.609 1.688 1.008t1.969 0.492v1.547q-0.328 0-0.539 0.234t-0.211 0.516q0 0.328 0.211 0.539t0.539 0.211h1.5q0.281 0 0.516-0.211t0.234-0.539q0-0.281-0.234-0.516t-0.516-0.234v0-1.547q0.984-0.094 1.922-0.492t1.688-1.008l1.078 1.125q-0.188 0.188-0.188 0.492t0.234 0.539q0.188 0.234 0.516 0.234t0.516-0.234l1.078-1.078q0.234-0.188 0.234-0.516t-0.234-0.516q-0.234-0.234-0.539-0.234t-0.539 0.234v0l-1.078-1.078q0.609-0.797 1.008-1.711t0.492-1.945h1.547q0 0.281 0.234 0.516t0.516 0.234q0.328 0 0.539-0.234t0.211-0.516v-1.5q0-0.328-0.211-0.539t-0.539-0.211zM13.734 8.016q0.422 0 0.727 0.281t0.305 0.703-0.305 0.703-0.727 0.281q-0.375 0-0.68-0.281t-0.305-0.703 0.305-0.703 0.68-0.281zM12 12.984q-0.422 0-0.703-0.281t-0.281-0.703 0.281-0.703 0.703-0.281 0.703 0.281 0.281 0.703-0.281 0.703-0.703 0.281zM10.266 8.016q0.375 0 0.68 0.281t0.305 0.703-0.305 0.703-0.68 0.281q-0.422 0-0.727-0.281t-0.305-0.703 0.305-0.703 0.727-0.281zM8.484 12.984q-0.375 0-0.68-0.281t-0.305-0.703 0.305-0.703 0.68-0.281q0.422 0 0.727 0.281t0.305 0.703-0.305 0.703-0.727 0.281zM10.266 15.984q-0.422 0-0.727-0.281t-0.305-0.703 0.305-0.703 0.727-0.281q0.375 0 0.68 0.281t0.305 0.703-0.305 0.703-0.68 0.281zM13.734 15.984q-0.375 0-0.68-0.281t-0.305-0.703 0.305-0.703 0.68-0.281q0.422 0 0.727 0.281t0.305 0.703-0.305 0.703-0.727 0.281zM14.484 12q0-0.422 0.305-0.703t0.727-0.281q0.375 0 0.68 0.281t0.305 0.703-0.305 0.703-0.68 0.281q-0.422 0-0.727-0.281t-0.305-0.703z"></path>
</symbol>
</defs>
</svg>
