<svg aria-hidden="true" style="position: absolute; width: 0; height: 0; overflow: hidden;" version="1.1" xmlns="http://www.w3.org/2000/svg" xmlns:xlink="http://www.w3.org/1999/xlink">
<defs>
<symbol id="icon-warning" viewBox="0 0 24 24">
<path d="M12.984 14.016v-4.031h-1.969v4.031h1.969zM12.984 18v-2.016h-1.969v2.016h1.969zM0.984 21l11.016-18.984 11.016 18.984h-22.031z"></path>
</symbol>
<symbol id="icon-info_outline" viewBox="0 0 24 24">
<path d="M11.016 9v-2.016h1.969v2.016h-1.969zM12 20.016q3.281 0 5.648-2.367t2.367-5.648-2.367-5.648-5.648-2.367-5.648 2.367-2.367 5.648 2.367 5.648 5.648 2.367zM12 2.016q4.125 0 7.055 2.93t2.93 7.055-2.93 7.055-7.055 2.93-7.055-2.93-2.93-7.055 2.93-7.055 7.055-2.93zM11.016 17.016v-6h1.969v6h-1.969z"></path>
</symbol>
<symbol id="icon-spinner9" viewBox="0 0 32 32">
<path d="M16 0c-8.711 0-15.796 6.961-15.995 15.624 0.185-7.558 5.932-13.624 12.995-13.624 7.18 0 13 6.268 13 14 0 1.657 1.343 3 3 3s3-1.343 3-3c0-8.837-7.163-16-16-16zM16 32c8.711 0 15.796-6.961 15.995-15.624-0.185 7.558-5.932 13.624-12.995 13.624-7.18 0-13-6.268-13-14 0-1.657-1.343-3-3-3s-3 1.343-3 3c0 8.837 7.163 16 16 16z"></path>
</symbol>
</defs>
</svg>
